<svg width="50" height="50" viewBox="0 0 50 50" fill="none" xmlns="http://www.w3.org/2000/svg">
<path d="M46.5969 9C46.5969 8.40698 46.3613 7.83824 45.942 7.41891C45.5227 6.99958 44.9539 6.764 44.3609 6.764C44.2469 6.764 44.1374 6.781 44.0274 6.7975V6.75H5.62492V6.764C5.03189 6.764 4.46316 6.99958 4.04383 7.41891C3.62449 7.83824 3.38892 8.40698 3.38892 9V41.25H3.41392C3.53992 42.3655 4.47542 43.236 5.62442 43.236V43.25H44.0269V43.2025C44.1364 43.219 44.2459 43.236 44.3604 43.236C45.5099 43.236 46.4454 42.366 46.5714 41.25H46.6104V9H46.5969ZM41.6324 38.2715H36.2019C36.1837 38.1946 36.1558 38.1204 36.1189 38.0505L36.1279 38.0455L24.7684 18.3705L24.7639 18.373C24.6386 18.1127 24.4425 17.8931 24.1981 17.7392C23.9536 17.5853 23.6708 17.5035 23.3819 17.503C23.0851 17.5034 22.7947 17.5895 22.5457 17.751C22.2968 17.9126 22.0997 18.1426 21.9784 18.4135L14.4189 31.5065L12.5679 28.301L12.5654 28.3025C12.4994 28.1652 12.3961 28.0494 12.2672 27.9682C12.1384 27.887 11.9892 27.8438 11.8369 27.8435C11.5074 27.8435 11.2249 28.041 11.0974 28.3225L8.36742 33.051V11.7425H41.6324V38.2715Z" fill="white"/>
<path d="M34.061 24.3419C36.85 24.3419 39.111 22.081 39.111 19.2919C39.111 16.5029 36.85 14.2419 34.061 14.2419C31.2719 14.2419 29.011 16.5029 29.011 19.2919C29.011 22.081 31.2719 24.3419 34.061 24.3419Z" fill="white"/>
</svg>
