<svg width="187" height="29" viewBox="0 0 187 29" fill="none" xmlns="http://www.w3.org/2000/svg">
<path d="M9.98 25.86C9.40667 25.86 8.88 25.8 8.4 25.68C7.92 25.5733 7.53333 25.3933 7.24 25.14C6.94667 24.9 6.8 24.5733 6.8 24.16C6.8 23.6133 6.98667 23.0867 7.36 22.58C7.74667 22.0733 8.26 21.5867 8.9 21.12C9.54 20.6667 10.2333 20.2467 10.98 19.86C11.8867 19.38 12.9267 18.92 14.1 18.48C15.2733 18.04 16.4933 17.6667 17.76 17.36C19.04 17.04 20.2667 16.8467 21.44 16.78C21.84 16.1667 22.2533 15.4667 22.68 14.68C23.1067 13.8933 23.5 13.0667 23.86 12.2C24.2333 11.3333 24.5333 10.4867 24.76 9.66C24.9867 8.82 25.1 8.04667 25.1 7.34C25.1 6.80667 24.9733 6.36667 24.72 6.02C24.48 5.66 24.1533 5.38 23.74 5.18C23.34 4.96667 22.9 4.81333 22.42 4.72C21.94 4.61333 21.4667 4.54667 21 4.52C20.5333 4.48 20.1133 4.46 19.74 4.46C18.5533 4.46 17.2733 4.57333 15.9 4.8C14.54 5.01333 13.16 5.32 11.76 5.72C10.3733 6.12 9.04667 6.59333 7.78 7.14C6.51333 7.68667 5.38 8.29333 4.38 8.96C3.39333 9.61333 2.60667 10.3133 2.02 11.06C1.44667 11.8067 1.16 12.5733 1.16 13.36C1.16 13.9067 1.30667 14.36 1.6 14.72C1.89333 15.0667 2.26667 15.32 2.72 15.48C3.18667 15.64 3.65333 15.72 4.12 15.72C4.25333 15.72 4.38667 15.7133 4.52 15.7C4.65333 15.6733 4.78667 15.6533 4.92 15.64C4.98667 15.6267 5.04667 15.62 5.1 15.62C5.16667 15.62 5.22667 15.62 5.28 15.62C5.42667 15.62 5.56 15.6333 5.68 15.66C5.8 15.6867 5.86 15.7267 5.86 15.78C5.86 15.86 5.68667 15.9533 5.34 16.06C4.83333 16.2067 4.34 16.28 3.86 16.28C3.20667 16.28 2.6 16.16 2.04 15.92C1.48 15.68 1.02667 15.3333 0.68 14.88C0.333333 14.4267 0.16 13.88 0.16 13.24C0.16 12.3067 0.393333 11.4467 0.86 10.66C1.32667 9.86 1.96667 9.14 2.78 8.5C3.60667 7.84667 4.55333 7.26667 5.62 6.76C6.68667 6.24 7.82 5.79333 9.02 5.42C10.2333 5.04667 11.46 4.74 12.7 4.5C13.94 4.24667 15.14 4.06 16.3 3.94C17.46 3.82 18.5267 3.76 19.5 3.76C20.3533 3.76 21.1733 3.83333 21.96 3.98C22.7467 4.12667 23.4533 4.36 24.08 4.68C24.7067 5 25.2 5.42 25.56 5.94C25.9333 6.44667 26.12 7.07333 26.12 7.82C26.12 8.86 25.9667 9.84667 25.66 10.78C25.3533 11.7133 24.9667 12.6133 24.5 13.48C24.0333 14.3333 23.5533 15.1733 23.06 16C22.9667 16.16 22.8867 16.2933 22.82 16.4C22.7533 16.4933 22.6733 16.6133 22.58 16.76C22.7133 16.76 22.8267 16.7667 22.92 16.78C23.0133 16.78 23.12 16.7867 23.24 16.8C23.7333 16.84 24.2 16.9267 24.64 17.06C25.08 17.18 25.3533 17.36 25.46 17.6C25.4867 17.6533 25.5 17.72 25.5 17.8C25.5 17.8667 25.4733 17.9 25.42 17.9C25.3933 17.9 25.3467 17.8867 25.28 17.86C25.2267 17.8333 25.1467 17.78 25.04 17.7C24.92 17.58 24.68 17.4867 24.32 17.42C23.9733 17.3533 23.6 17.3067 23.2 17.28C23.0667 17.2667 22.9133 17.26 22.74 17.26C22.58 17.26 22.4267 17.26 22.28 17.26C21.72 18.0867 21.06 18.9067 20.3 19.72C19.5533 20.5467 18.7467 21.3267 17.88 22.06C17.0267 22.7933 16.14 23.4467 15.22 24.02C14.3133 24.5933 13.4133 25.04 12.52 25.36C11.6267 25.6933 10.78 25.86 9.98 25.86ZM9.7 25.38C10.4867 25.3667 11.2933 25.1933 12.12 24.86C12.9467 24.54 13.7733 24.1067 14.6 23.56C15.44 23.0133 16.2467 22.3933 17.02 21.7C17.8067 21.0067 18.54 20.28 19.22 19.52C19.9133 18.7733 20.5267 18.04 21.06 17.32C19.86 17.4267 18.6267 17.66 17.36 18.02C16.1067 18.38 14.8867 18.8267 13.7 19.36C12.5133 19.8933 11.42 20.4733 10.42 21.1C9.47333 21.6733 8.78667 22.22 8.36 22.74C7.94667 23.26 7.74 23.7133 7.74 24.1C7.74 24.4733 7.92 24.78 8.28 25.02C8.64 25.26 9.11333 25.38 9.7 25.38ZM34.3381 18.22C33.6981 18.22 33.2581 18.08 33.0181 17.8C32.7781 17.52 32.6581 17.1733 32.6581 16.76C32.6581 16.56 32.6848 16.3533 32.7381 16.14C32.7915 15.9133 32.8515 15.7 32.9181 15.5C32.7048 15.7267 32.4448 15.9867 32.1381 16.28C31.8448 16.5733 31.5181 16.86 31.1581 17.14C30.8115 17.42 30.4648 17.6533 30.1181 17.84C29.7715 18.0133 29.4381 18.1 29.1181 18.1C28.7181 18.1 28.3915 17.9267 28.1381 17.58C27.9781 17.34 27.8981 17.0933 27.8981 16.84C27.8981 16.5333 27.9781 16.24 28.1381 15.96C28.3115 15.6667 28.5048 15.3867 28.7181 15.12C28.9448 14.84 29.1381 14.5867 29.2981 14.36C29.6048 13.9067 29.8648 13.4733 30.0781 13.06C30.2915 12.6467 30.3981 12.3133 30.3981 12.06C30.3981 11.9133 30.3515 11.8 30.2581 11.72C30.0981 11.6 30.0181 11.46 30.0181 11.3C30.0181 11.1933 30.0781 11.14 30.1981 11.14C30.2781 11.14 30.3781 11.18 30.4981 11.26C30.5915 11.3133 30.6915 11.3867 30.7981 11.48C30.9048 11.5733 31.0048 11.68 31.0981 11.8C31.1515 11.8533 31.1981 11.9067 31.2381 11.96C31.2781 12.0133 31.3181 12.0667 31.3581 12.12C31.3848 12.1867 31.4115 12.26 31.4381 12.34C31.4648 12.4067 31.4781 12.4867 31.4781 12.58C31.4781 12.7933 31.4048 13.0267 31.2581 13.28C31.1115 13.5333 30.9248 13.8067 30.6981 14.1C30.4848 14.3933 30.2581 14.6933 30.0181 15C29.9115 15.1333 29.7448 15.36 29.5181 15.68C29.3048 15.9867 29.1115 16.2933 28.9381 16.6C28.8581 16.76 28.7848 16.9067 28.7181 17.04C28.6648 17.1733 28.6381 17.2933 28.6381 17.4C28.6381 17.5733 28.7381 17.66 28.9381 17.66C29.1248 17.66 29.3515 17.5867 29.6181 17.44C29.8981 17.28 30.1648 17.1067 30.4181 16.92C30.6715 16.72 30.8581 16.5733 30.9781 16.48C31.4048 16.12 31.8448 15.7467 32.2981 15.36C32.7648 14.96 33.2115 14.58 33.6381 14.22C33.7048 14.1667 33.7915 14.14 33.8981 14.14C34.0848 14.14 34.2315 14.1933 34.3381 14.3C34.3915 14.34 34.4181 14.4133 34.4181 14.52C34.4181 14.7333 34.3115 15.04 34.0981 15.44C34.0448 15.56 33.9848 15.6867 33.9181 15.82C33.8515 15.94 33.7915 16.0667 33.7381 16.2C33.6848 16.3333 33.6315 16.46 33.5781 16.58C33.5381 16.7 33.5115 16.82 33.4981 16.94C33.4848 16.98 33.4781 17.02 33.4781 17.06C33.4781 17.1 33.4781 17.14 33.4781 17.18C33.4781 17.3933 33.5381 17.54 33.6581 17.62C33.7781 17.6867 33.9248 17.72 34.0981 17.72C34.3515 17.72 34.6115 17.68 34.8781 17.6C35.1581 17.5067 35.3848 17.4333 35.5581 17.38C36.2381 17.1133 36.9248 16.7533 37.6181 16.3C38.3248 15.8467 38.9581 15.3933 39.5181 14.94C39.6515 14.82 39.7781 14.7133 39.8981 14.62C40.0315 14.5267 40.1648 14.4133 40.2981 14.28C40.3915 14.1867 40.4648 14.1333 40.5181 14.12H40.5581C40.6648 14.12 40.6981 14.18 40.6581 14.3C40.6315 14.4067 40.5781 14.5133 40.4981 14.62C40.3781 14.82 40.1581 15.0733 39.8381 15.38C39.5181 15.6733 39.1315 15.9867 38.6781 16.32C38.2381 16.64 37.7648 16.9467 37.2581 17.24C36.7515 17.5333 36.2448 17.7733 35.7381 17.96C35.2315 18.1333 34.7648 18.22 34.3381 18.22ZM39.2719 18.8C39.1119 18.7733 38.9585 18.7133 38.8119 18.62C38.6785 18.54 38.6119 18.4133 38.6119 18.24C38.6119 17.9467 38.7719 17.64 39.0919 17.32C39.4119 16.9867 39.8119 16.6667 40.2919 16.36C40.7719 16.0533 41.2452 15.8 41.7119 15.6C41.4185 15.2933 41.1852 15 41.0119 14.72C40.8385 14.4267 40.7519 14.1333 40.7519 13.84C40.7519 13.44 40.9385 13.06 41.3119 12.7C41.6852 12.3267 42.2785 11.96 43.0919 11.6C43.4785 11.4267 43.8252 11.3067 44.1319 11.24C44.4519 11.1733 44.7319 11.14 44.9719 11.14C45.2785 11.14 45.5319 11.18 45.7319 11.26C45.9319 11.34 46.0785 11.4333 46.1719 11.54C46.3852 11.7933 46.4919 12.0467 46.4919 12.3C46.4919 12.62 46.3519 12.8933 46.0719 13.12C45.7919 13.3467 45.5319 13.5333 45.2919 13.68C45.2519 13.6933 45.2119 13.7133 45.1719 13.74C45.1319 13.7667 45.0985 13.7933 45.0719 13.82C44.9919 13.8733 44.9452 13.9067 44.9319 13.92C44.8119 14.0267 44.6919 14.0533 44.5719 14C44.5052 13.96 44.4719 13.9067 44.4719 13.84C44.4719 13.7733 44.5052 13.72 44.5719 13.68C44.7185 13.6133 44.8852 13.4867 45.0719 13.3C45.2719 13.1 45.4452 12.8933 45.5919 12.68C45.7519 12.4533 45.8319 12.26 45.8319 12.1C45.8319 12.02 45.8119 11.9533 45.7719 11.9C45.6919 11.82 45.5319 11.78 45.2919 11.78C44.9985 11.78 44.6519 11.8467 44.2519 11.98C43.8652 12.1133 43.4852 12.2933 43.1119 12.52C42.7519 12.7333 42.4519 12.9733 42.2119 13.24C41.9719 13.4933 41.8519 13.7467 41.8519 14C41.8519 14.2267 41.9252 14.4467 42.0719 14.66C42.2319 14.86 42.4052 15.0533 42.5919 15.24C42.9652 15.08 43.4052 14.9467 43.9119 14.84C44.4319 14.72 44.9652 14.6267 45.5119 14.56C46.0719 14.4933 46.6119 14.4467 47.1319 14.42C47.6519 14.3933 48.0985 14.38 48.4719 14.38C48.6985 14.38 48.8919 14.38 49.0519 14.38C49.2119 14.38 49.3385 14.3933 49.4319 14.42C49.5519 14.4467 49.6119 14.5 49.6119 14.58C49.6119 14.6333 49.5852 14.68 49.5319 14.72C49.4919 14.76 49.4452 14.78 49.3919 14.78C49.2985 14.78 49.1985 14.7733 49.0919 14.76C48.9985 14.7467 48.8852 14.74 48.7519 14.74C48.3385 14.74 47.8452 14.7733 47.2719 14.84C46.6985 14.8933 46.1185 14.9667 45.5319 15.06C44.9585 15.14 44.4385 15.2333 43.9719 15.34C43.5052 15.4467 43.1719 15.5533 42.9719 15.66C43.1985 15.9667 43.3119 16.2933 43.3119 16.64C43.3119 17.2533 43.0119 17.7333 42.4119 18.08C42.0119 18.3333 41.5585 18.52 41.0519 18.64C40.5585 18.7733 40.1185 18.84 39.7319 18.84C39.6385 18.84 39.5519 18.8333 39.4719 18.82C39.4052 18.82 39.3385 18.8133 39.2719 18.8ZM39.7119 18.22C39.8585 18.22 40.1252 18.16 40.5119 18.04C40.9119 17.9333 41.2785 17.7733 41.6119 17.56C42.0652 17.28 42.2919 16.96 42.2919 16.6C42.2919 16.3733 42.1852 16.1333 41.9719 15.88C41.7185 15.9733 41.4052 16.1533 41.0319 16.42C40.6719 16.6733 40.3519 16.94 40.0719 17.22C39.7652 17.5267 39.5719 17.78 39.4919 17.98C39.4919 17.9933 39.4852 18.0067 39.4719 18.02C39.4719 18.0333 39.4719 18.0533 39.4719 18.08C39.4719 18.16 39.5519 18.2067 39.7119 18.22ZM49.028 18.46C48.5746 18.46 48.1613 18.3667 47.788 18.18C47.428 18.0067 47.248 17.6533 47.248 17.12C47.248 16.76 47.3813 16.3533 47.648 15.9C47.928 15.4333 48.288 14.94 48.728 14.42C49.1813 13.9 49.668 13.38 50.188 12.86C50.7213 12.34 51.2413 11.8533 51.748 11.4C51.6146 11.3733 51.488 11.3467 51.368 11.32C51.2613 11.2933 51.1546 11.2667 51.048 11.24C50.448 11.0933 49.728 10.92 48.888 10.72C48.0613 10.5067 47.1746 10.3067 46.228 10.12C45.2946 9.92 44.328 9.75333 43.328 9.62C42.328 9.47333 41.3546 9.4 40.408 9.4C39.168 9.4 38.0413 9.56 37.028 9.88C36.0146 10.2 35.2413 10.7667 34.708 11.58C34.668 11.6333 34.628 11.68 34.588 11.72C34.548 11.76 34.508 11.7867 34.468 11.8C34.4546 11.8 34.448 11.8067 34.448 11.82C34.4346 11.82 34.4213 11.82 34.408 11.82C34.328 11.82 34.2746 11.7733 34.248 11.68C34.2346 11.6533 34.228 11.6133 34.228 11.56C34.228 11.3867 34.2746 11.2467 34.368 11.14C34.7946 10.5133 35.3346 10.02 35.988 9.66C36.628 9.3 37.348 9.04667 38.148 8.9C38.9346 8.74 39.7546 8.66 40.608 8.66C41.4746 8.66 42.348 8.72 43.228 8.84C44.108 8.94667 44.9546 9.08667 45.768 9.26C46.5813 9.42 47.328 9.59333 48.008 9.78C48.7013 9.95333 49.2813 10.1067 49.748 10.24C50.068 10.32 50.4546 10.4133 50.908 10.52C51.3613 10.6267 51.8546 10.7267 52.388 10.82L53.568 9.8C53.5146 9.65333 53.568 9.47333 53.728 9.26C53.9013 9.04667 54.1413 8.87333 54.448 8.74C54.4746 8.72667 54.5346 8.72 54.628 8.72C54.7613 8.72 54.9146 8.74 55.088 8.78C55.2613 8.82 55.4146 8.88 55.548 8.96C55.6813 9.04 55.748 9.14 55.748 9.26C55.748 9.31333 55.7013 9.38667 55.608 9.48C55.5146 9.57333 55.408 9.66 55.288 9.74C55.1813 9.82 55.108 9.87333 55.068 9.9C54.9213 9.98 54.7146 10.12 54.448 10.32C54.1946 10.5067 53.8946 10.7333 53.548 11C54.508 11.1467 55.4213 11.22 56.288 11.22C56.9546 11.22 57.548 11.1667 58.068 11.06C58.588 10.94 59.0013 10.74 59.308 10.46C59.6146 10.18 59.768 9.80667 59.768 9.34C59.768 9.28667 59.768 9.24 59.768 9.2C59.768 9.14667 59.7613 9.09333 59.748 9.04V9.02C59.748 8.88667 59.8213 8.82 59.968 8.82C60.0746 8.82 60.148 8.88 60.188 9C60.2013 9.08 60.208 9.16 60.208 9.24C60.2213 9.32 60.228 9.4 60.228 9.48C60.228 10.12 60.0413 10.6267 59.668 11C59.2946 11.36 58.808 11.62 58.208 11.78C57.608 11.9267 56.9613 12 56.268 12C55.6946 12 55.108 11.96 54.508 11.88C53.9213 11.8 53.3546 11.7133 52.808 11.62C52.2746 12.06 51.7346 12.54 51.188 13.06C50.6413 13.58 50.1346 14.0933 49.668 14.6C49.2013 15.1067 48.8213 15.5733 48.528 16C48.248 16.4267 48.108 16.7733 48.108 17.04C48.108 17.56 48.528 17.82 49.368 17.82C49.9946 17.82 50.728 17.6667 51.568 17.36C51.648 17.3333 51.728 17.3067 51.808 17.28C51.9013 17.24 51.9946 17.2 52.088 17.16C52.7013 16.8933 53.308 16.56 53.908 16.16C54.508 15.7467 55.0546 15.3333 55.548 14.92C55.6146 14.8533 55.6813 14.8 55.748 14.76C55.8146 14.7067 55.8746 14.66 55.928 14.62C55.9946 14.5667 56.0546 14.52 56.108 14.48C56.1746 14.4267 56.248 14.3667 56.328 14.3C56.408 14.2733 56.4613 14.26 56.488 14.26C56.5813 14.26 56.628 14.3067 56.628 14.4C56.628 14.4933 56.5946 14.5733 56.528 14.64C56.448 14.7467 56.2546 14.9467 55.948 15.24C55.6413 15.52 55.2613 15.8333 54.808 16.18C54.3546 16.5267 53.8613 16.86 53.328 17.18C52.808 17.5 52.2813 17.7533 51.748 17.94C51.4813 18.0333 51.088 18.14 50.568 18.26C50.048 18.3933 49.5346 18.46 49.028 18.46Z" fill="#FBA1A1"/>
<path d="M62.8402 20.34C62.2802 20.34 61.7602 20.2733 61.2802 20.14C60.6535 19.94 60.1002 19.62 59.6202 19.18C59.1535 18.7533 58.8268 18.2 58.6402 17.52C58.6268 17.4667 58.6202 17.42 58.6202 17.38C58.6068 17.34 58.6002 17.3067 58.6002 17.28C58.6002 17.1733 58.6202 17.1 58.6602 17.06C58.7002 17.0067 58.7335 16.98 58.7602 16.98H58.7802C58.9135 16.98 59.0202 17.1267 59.1002 17.42C59.2468 18.0467 59.5268 18.54 59.9402 18.9C60.3535 19.2733 60.8802 19.5267 61.5202 19.66C61.6935 19.6867 61.8668 19.7067 62.0402 19.72C62.2135 19.7467 62.3868 19.76 62.5602 19.76C63.1868 19.76 63.7935 19.6667 64.3802 19.48C64.9802 19.2933 65.5468 19.06 66.0802 18.78C66.8268 18.38 67.6935 17.7533 68.6802 16.9C69.6802 16.0467 70.7002 15.0733 71.7402 13.98C71.2602 13.7133 70.8535 13.3533 70.5202 12.9C70.5068 12.86 70.4868 12.82 70.4602 12.78C70.4468 12.74 70.4402 12.7 70.4402 12.66C70.4402 12.58 70.4668 12.5133 70.5202 12.46C70.5602 12.42 70.6068 12.4 70.6602 12.4C70.7802 12.4 70.8735 12.4667 70.9402 12.6C71.2068 13.08 71.5735 13.44 72.0402 13.68C73.2668 12.3733 74.3335 11.12 75.2402 9.92C76.1602 8.70667 76.9402 7.52667 77.5802 6.38C77.1668 6.35333 76.7668 6.34 76.3802 6.34C76.0068 6.32667 75.6735 6.32 75.3802 6.32C74.4735 6.32 73.5002 6.38 72.4602 6.5C71.4202 6.62 70.3602 6.8 69.2802 7.04C68.2002 7.28 67.1535 7.59333 66.1402 7.98C65.1402 8.35333 64.2202 8.8 63.3802 9.32C62.5535 9.84 61.8535 10.44 61.2802 11.12C60.7202 11.7867 60.3468 12.54 60.1602 13.38C60.1468 13.4733 60.1268 13.5667 60.1002 13.66C60.0868 13.7533 60.0802 13.84 60.0802 13.92C60.0802 14.4533 60.2468 14.9067 60.5802 15.28C60.9268 15.6533 61.2868 15.8667 61.6602 15.92C61.7268 15.9333 61.7868 15.9467 61.8402 15.96C61.9068 15.9733 61.9468 16 61.9602 16.04C62.0002 16.0933 62.0068 16.14 61.9802 16.18C61.9668 16.22 61.9468 16.2533 61.9202 16.28C61.8002 16.4 61.6335 16.44 61.4202 16.4C61.0735 16.3467 60.7202 16.1867 60.3602 15.92C60.0135 15.6533 59.7202 15.3133 59.4802 14.9C59.2402 14.4867 59.1202 14.0267 59.1202 13.52C59.1202 13.32 59.1402 13.12 59.1802 12.92C59.3802 11.9867 59.7868 11.16 60.4002 10.44C61.0268 9.72 61.8068 9.1 62.7402 8.58C63.6868 8.04667 64.7202 7.6 65.8402 7.24C66.9735 6.88 68.1468 6.59333 69.3602 6.38C70.5868 6.15333 71.7935 5.99333 72.9802 5.9C74.1668 5.80667 75.2735 5.76 76.3002 5.76C76.5802 5.76 76.8535 5.76667 77.1202 5.78C77.3868 5.78 77.6468 5.78667 77.9002 5.8L78.0802 5.44C78.1735 5.24 78.2602 5.11333 78.3402 5.06C78.3935 5.03333 78.4335 5.02 78.4602 5.02C78.5268 5.02 78.5735 5.05333 78.6002 5.12C78.6268 5.14667 78.6402 5.21333 78.6402 5.32C78.6402 5.44 78.6202 5.55333 78.5802 5.66L78.4802 5.84C79.1602 5.89333 79.8402 5.99333 80.5202 6.14C81.2002 6.27333 81.8202 6.46667 82.3802 6.72C82.9402 6.96 83.3868 7.28 83.7202 7.68C84.0668 8.06667 84.2402 8.55333 84.2402 9.14C84.2402 9.87333 84.0268 10.54 83.6002 11.14C83.1735 11.74 82.6068 12.2667 81.9002 12.72C81.2068 13.1733 80.4535 13.5533 79.6402 13.86C78.8268 14.1667 78.0268 14.4 77.2402 14.56C76.4535 14.7067 75.7668 14.78 75.1802 14.78C74.7535 14.78 74.3335 14.7533 73.9202 14.7C73.5068 14.6467 73.1068 14.56 72.7202 14.44C71.7202 15.5733 70.7002 16.5933 69.6602 17.5C68.6202 18.3933 67.6602 19.04 66.7802 19.44C66.2068 19.6933 65.5735 19.9067 64.8802 20.08C64.2002 20.2533 63.5202 20.34 62.8402 20.34ZM74.1602 14.14C74.7602 14.14 75.4468 14.0733 76.2202 13.94C77.0068 13.8067 77.8002 13.6067 78.6002 13.34C79.4002 13.06 80.1402 12.7133 80.8202 12.3C81.5002 11.8867 82.0468 11.4067 82.4602 10.86C82.8868 10.3 83.1002 9.67333 83.1002 8.98C83.1002 8.52667 82.9602 8.14667 82.6802 7.84C82.4002 7.53333 82.0268 7.28 81.5602 7.08C81.0935 6.88 80.5668 6.72667 79.9802 6.62C79.3935 6.51333 78.8002 6.44 78.2002 6.4C77.6268 7.45333 76.9668 8.57333 76.2202 9.76C75.4868 10.9467 74.6668 12.1 73.7602 13.22C73.6535 13.3533 73.5402 13.4933 73.4202 13.64C73.3135 13.7733 73.2002 13.9067 73.0802 14.04C73.2535 14.08 73.4268 14.1067 73.6002 14.12C73.7868 14.1333 73.9735 14.14 74.1602 14.14ZM90.0828 18.34C89.5095 18.34 89.0495 18.2067 88.7028 17.94C88.3561 17.66 88.1095 17.3 87.9628 16.86C87.8161 16.42 87.7428 15.9467 87.7428 15.44C87.7428 15.1733 87.7628 14.9067 87.8028 14.64C87.8428 14.36 87.8895 14.0867 87.9428 13.82C87.6495 14.1533 87.3161 14.5133 86.9428 14.9C86.5828 15.2867 86.2095 15.66 85.8228 16.02C85.4495 16.38 85.1028 16.7 84.7828 16.98C84.4628 17.26 84.1961 17.4667 83.9828 17.6C84.0228 17.68 84.0428 17.7533 84.0428 17.82C84.0428 17.94 84.0028 18.0333 83.9228 18.1C83.8428 18.1667 83.7495 18.2 83.6428 18.2C83.5228 18.2 83.3961 18.16 83.2628 18.08C83.1428 18.0133 83.0428 17.8933 82.9628 17.72C82.9095 17.6133 82.8828 17.4667 82.8828 17.28C82.8828 17.0133 82.9428 16.7067 83.0628 16.36C83.1961 16.0133 83.3561 15.6533 83.5428 15.28C83.7961 14.8 84.0761 14.3067 84.3828 13.8C84.7028 13.28 85.0095 12.7933 85.3028 12.34C85.2361 12.2733 85.1895 12.2133 85.1628 12.16C85.1361 12.0933 85.1228 12.04 85.1228 12C85.1228 11.96 85.1361 11.9133 85.1628 11.86C85.1895 11.7933 85.2295 11.76 85.2828 11.76C85.3361 11.76 85.3895 11.7867 85.4428 11.84C85.4561 11.88 85.4895 11.9267 85.5428 11.98C85.6761 11.7667 85.9361 11.36 86.3228 10.76C86.7228 10.1467 87.2161 9.42667 87.8028 8.6C88.3895 7.77333 89.0361 6.92667 89.7428 6.06C90.3028 5.36667 90.8961 4.7 91.5228 4.06C92.1495 3.40667 92.7895 2.82667 93.4428 2.32C94.0961 1.8 94.7495 1.38667 95.4028 1.08C96.0561 0.773333 96.6895 0.62 97.3028 0.62C97.9828 0.62 98.4895 0.799999 98.8228 1.16C99.1561 1.50667 99.3228 1.96 99.3228 2.52C99.3228 3.29333 99.1561 4.04 98.8228 4.76C98.4895 5.46667 98.0428 6.14667 97.4828 6.8C96.9361 7.44 96.3228 8.04667 95.6428 8.62C94.9628 9.18 94.2761 9.7 93.5828 10.18C92.9295 10.6333 92.2228 11.0267 91.4628 11.36C90.7161 11.6933 89.9895 11.9733 89.2828 12.2C89.3361 12.2533 89.3828 12.3133 89.4228 12.38C89.4761 12.4467 89.5295 12.52 89.5828 12.6C89.6095 12.6533 89.6228 12.7133 89.6228 12.78C89.6228 13.0067 89.5828 13.1733 89.5028 13.28C88.9428 14.1467 88.6628 15.0067 88.6628 15.86C88.6628 16.3933 88.7961 16.84 89.0628 17.2C89.3295 17.56 89.7361 17.74 90.2828 17.74C90.8428 17.74 91.5761 17.5133 92.4828 17.06C93.0561 16.7667 93.6361 16.4267 94.2228 16.04C94.8228 15.6533 95.3628 15.2667 95.8428 14.88C95.9095 14.8133 95.9761 14.76 96.0428 14.72C96.1228 14.68 96.1895 14.6333 96.2428 14.58L96.6428 14.26C96.6828 14.2467 96.7295 14.24 96.7828 14.24C96.8895 14.24 96.9428 14.2867 96.9428 14.38C96.9428 14.46 96.9095 14.5333 96.8428 14.6C96.7628 14.7067 96.5828 14.8867 96.3028 15.14C96.0228 15.38 95.6761 15.66 95.2628 15.98C94.8628 16.3 94.4228 16.6133 93.9428 16.92C93.4761 17.2267 93.0095 17.4933 92.5428 17.72C92.2761 17.8533 91.9095 17.9867 91.4428 18.12C90.9895 18.2667 90.5361 18.34 90.0828 18.34ZM86.3228 12.18C86.6428 12.1533 87.0761 12.0733 87.6228 11.94C88.1695 11.7933 88.7695 11.6 89.4228 11.36C90.0761 11.12 90.7361 10.84 91.4028 10.52C92.0695 10.2 92.6828 9.84667 93.2428 9.46C93.6161 9.19333 94.0361 8.86667 94.5028 8.48C94.9828 8.09333 95.4628 7.66 95.9428 7.18C96.4228 6.7 96.8628 6.2 97.2628 5.68C97.6761 5.14667 98.0028 4.60667 98.2428 4.06C98.4961 3.51333 98.6228 2.97333 98.6228 2.44C98.6228 2.06667 98.5228 1.79333 98.3228 1.62C98.1228 1.44667 97.7828 1.36 97.3028 1.36C96.8895 1.36 96.3961 1.52 95.8228 1.84C95.2495 2.16 94.6561 2.57333 94.0428 3.08C93.4295 3.57333 92.8428 4.1 92.2828 4.66C91.7361 5.20667 91.2761 5.70667 90.9028 6.16C90.3295 6.86667 89.7428 7.6 89.1428 8.36C88.5428 9.10667 87.9895 9.82 87.4828 10.5C86.9895 11.1667 86.6028 11.7267 86.3228 12.18ZM83.8628 16.98C84.0228 16.8733 84.2495 16.6867 84.5428 16.42C84.8361 16.1533 85.1628 15.8467 85.5228 15.5C85.8828 15.1533 86.2428 14.8 86.6028 14.44C86.9761 14.0667 87.3095 13.72 87.6028 13.4C87.9095 13.0667 88.1495 12.8 88.3228 12.6L88.3828 12.46C87.6895 12.62 87.0828 12.7 86.5628 12.7C86.4695 12.7 86.3761 12.7 86.2828 12.7C86.1895 12.6867 86.1095 12.6733 86.0428 12.66C85.7095 13.1667 85.3761 13.7067 85.0428 14.28C84.7095 14.84 84.4295 15.36 84.2028 15.84C83.9761 16.32 83.8628 16.7 83.8628 16.98ZM96.0275 18.36C95.5342 18.36 95.1742 18.2267 94.9475 17.96C94.7208 17.6933 94.6075 17.3933 94.6075 17.06C94.6075 16.9533 94.6142 16.8533 94.6275 16.76C94.6542 16.6533 94.6808 16.5467 94.7075 16.44C94.8008 16.1733 94.9675 15.8467 95.2075 15.46C95.4608 15.0733 95.7408 14.7067 96.0475 14.36C96.3542 14 96.6475 13.74 96.9275 13.58C96.7942 13.4333 96.7275 13.2533 96.7275 13.04C96.7275 12.56 97.1008 12.2067 97.8475 11.98C98.0342 11.9133 98.2342 11.8733 98.4475 11.86C98.6742 11.8333 98.9075 11.82 99.1475 11.82C99.4542 11.82 99.7542 11.84 100.048 11.88C100.474 11.9467 100.848 12.1333 101.168 12.44C101.488 12.7333 101.674 13.0933 101.728 13.52C101.754 13.6667 101.754 13.8133 101.728 13.96C101.941 13.9733 102.148 13.98 102.348 13.98C102.561 13.9667 102.754 13.96 102.928 13.96C103.328 13.96 103.734 13.9333 104.148 13.88C104.574 13.8133 104.961 13.74 105.308 13.66C105.668 13.5667 105.934 13.4733 106.108 13.38C106.214 13.34 106.294 13.32 106.348 13.32C106.454 13.32 106.521 13.36 106.548 13.44C106.548 13.5733 106.421 13.7 106.168 13.82C105.874 13.9533 105.428 14.0867 104.828 14.22C104.228 14.3533 103.594 14.4333 102.928 14.46C102.768 14.4733 102.574 14.4867 102.348 14.5C102.134 14.5 101.894 14.5 101.628 14.5C101.481 15.0333 101.194 15.5333 100.768 16C100.354 16.4667 99.8675 16.88 99.3075 17.24C98.7475 17.5867 98.1742 17.86 97.5875 18.06C97.0142 18.26 96.4942 18.36 96.0275 18.36ZM101.008 13.92C101.074 13.72 101.108 13.5467 101.108 13.4C101.108 13.16 101.008 12.9533 100.808 12.78C100.621 12.6067 100.261 12.52 99.7275 12.52C99.1808 12.52 98.7208 12.6 98.3475 12.76C97.9875 12.9067 97.8075 13.04 97.8075 13.16C97.8075 13.1867 97.8342 13.2267 97.8875 13.28C97.9408 13.3333 98.0475 13.3867 98.2075 13.44C98.6342 13.5733 99.0875 13.68 99.5675 13.76C100.048 13.84 100.528 13.8933 101.008 13.92ZM96.4075 17.78C96.6608 17.7267 96.9742 17.6067 97.3475 17.42C97.7342 17.2333 98.1342 17 98.5475 16.72C98.9742 16.4267 99.3675 16.1067 99.7275 15.76C100.101 15.4267 100.441 15 100.748 14.48C100.254 14.48 99.7675 14.4733 99.2875 14.46C98.8208 14.4467 98.4008 14.3533 98.0275 14.18C97.8675 14.1933 97.6408 14.32 97.3475 14.56C97.0542 14.7867 96.7608 15.0733 96.4675 15.42C96.1742 15.7667 95.9208 16.12 95.7075 16.48C95.5075 16.8267 95.4075 17.1267 95.4075 17.38C95.4075 17.5 95.4475 17.6067 95.5275 17.7C95.6208 17.78 95.7808 17.82 96.0075 17.82C96.0608 17.82 96.1208 17.82 96.1875 17.82C96.2542 17.8067 96.3275 17.7933 96.4075 17.78ZM105.551 18.46C105.098 18.46 104.685 18.3667 104.311 18.18C103.951 18.0067 103.771 17.6533 103.771 17.12C103.771 16.76 103.905 16.3533 104.171 15.9C104.451 15.4333 104.811 14.94 105.251 14.42C105.705 13.9 106.191 13.38 106.711 12.86C107.245 12.34 107.765 11.8533 108.271 11.4C108.138 11.3733 108.011 11.3467 107.891 11.32C107.785 11.2933 107.678 11.2667 107.571 11.24C106.971 11.0933 106.251 10.92 105.411 10.72C104.585 10.5067 103.698 10.3067 102.751 10.12C101.818 9.92 100.851 9.75333 99.8514 9.62C98.8514 9.47333 97.8781 9.4 96.9314 9.4C95.6914 9.4 94.5647 9.56 93.5514 9.88C92.5381 10.2 91.7647 10.7667 91.2314 11.58C91.1914 11.6333 91.1514 11.68 91.1114 11.72C91.0714 11.76 91.0314 11.7867 90.9914 11.8C90.9781 11.8 90.9714 11.8067 90.9714 11.82C90.9581 11.82 90.9447 11.82 90.9314 11.82C90.8514 11.82 90.7981 11.7733 90.7714 11.68C90.7581 11.6533 90.7514 11.6133 90.7514 11.56C90.7514 11.3867 90.7981 11.2467 90.8914 11.14C91.3181 10.5133 91.8581 10.02 92.5114 9.66C93.1514 9.3 93.8714 9.04667 94.6714 8.9C95.4581 8.74 96.2781 8.66 97.1314 8.66C97.9981 8.66 98.8714 8.72 99.7514 8.84C100.631 8.94667 101.478 9.08667 102.291 9.26C103.105 9.42 103.851 9.59333 104.531 9.78C105.225 9.95333 105.805 10.1067 106.271 10.24C106.591 10.32 106.978 10.4133 107.431 10.52C107.885 10.6267 108.378 10.7267 108.911 10.82L110.091 9.8C110.038 9.65333 110.091 9.47333 110.251 9.26C110.425 9.04667 110.665 8.87333 110.971 8.74C110.998 8.72667 111.058 8.72 111.151 8.72C111.285 8.72 111.438 8.74 111.611 8.78C111.785 8.82 111.938 8.88 112.071 8.96C112.205 9.04 112.271 9.14 112.271 9.26C112.271 9.31333 112.225 9.38667 112.131 9.48C112.038 9.57333 111.931 9.66 111.811 9.74C111.705 9.82 111.631 9.87333 111.591 9.9C111.445 9.98 111.238 10.12 110.971 10.32C110.718 10.5067 110.418 10.7333 110.071 11C111.031 11.1467 111.945 11.22 112.811 11.22C113.478 11.22 114.071 11.1667 114.591 11.06C115.111 10.94 115.525 10.74 115.831 10.46C116.138 10.18 116.291 9.80667 116.291 9.34C116.291 9.28667 116.291 9.24 116.291 9.2C116.291 9.14667 116.285 9.09333 116.271 9.04V9.02C116.271 8.88667 116.345 8.82 116.491 8.82C116.598 8.82 116.671 8.88 116.711 9C116.725 9.08 116.731 9.16 116.731 9.24C116.745 9.32 116.751 9.4 116.751 9.48C116.751 10.12 116.565 10.6267 116.191 11C115.818 11.36 115.331 11.62 114.731 11.78C114.131 11.9267 113.485 12 112.791 12C112.218 12 111.631 11.96 111.031 11.88C110.445 11.8 109.878 11.7133 109.331 11.62C108.798 12.06 108.258 12.54 107.711 13.06C107.165 13.58 106.658 14.0933 106.191 14.6C105.725 15.1067 105.345 15.5733 105.051 16C104.771 16.4267 104.631 16.7733 104.631 17.04C104.631 17.56 105.051 17.82 105.891 17.82C106.518 17.82 107.251 17.6667 108.091 17.36C108.171 17.3333 108.251 17.3067 108.331 17.28C108.425 17.24 108.518 17.2 108.611 17.16C109.225 16.8933 109.831 16.56 110.431 16.16C111.031 15.7467 111.578 15.3333 112.071 14.92C112.138 14.8533 112.205 14.8 112.271 14.76C112.338 14.7067 112.398 14.66 112.451 14.62C112.518 14.5667 112.578 14.52 112.631 14.48C112.698 14.4267 112.771 14.3667 112.851 14.3C112.931 14.2733 112.985 14.26 113.011 14.26C113.105 14.26 113.151 14.3067 113.151 14.4C113.151 14.4933 113.118 14.5733 113.051 14.64C112.971 14.7467 112.778 14.9467 112.471 15.24C112.165 15.52 111.785 15.8333 111.331 16.18C110.878 16.5267 110.385 16.86 109.851 17.18C109.331 17.5 108.805 17.7533 108.271 17.94C108.005 18.0333 107.611 18.14 107.091 18.26C106.571 18.3933 106.058 18.46 105.551 18.46ZM112.531 18.36C112.038 18.36 111.678 18.2267 111.451 17.96C111.225 17.6933 111.111 17.3933 111.111 17.06C111.111 16.9533 111.118 16.8533 111.131 16.76C111.158 16.6533 111.185 16.5467 111.211 16.44C111.305 16.1733 111.471 15.8467 111.711 15.46C111.965 15.0733 112.245 14.7067 112.551 14.36C112.858 14 113.151 13.74 113.431 13.58C113.298 13.4333 113.231 13.2533 113.231 13.04C113.231 12.56 113.605 12.2067 114.351 11.98C114.538 11.9133 114.738 11.8733 114.951 11.86C115.178 11.8333 115.411 11.82 115.651 11.82C115.958 11.82 116.258 11.84 116.551 11.88C116.978 11.9467 117.351 12.1333 117.671 12.44C117.991 12.7333 118.178 13.0933 118.231 13.52C118.258 13.6667 118.258 13.8133 118.231 13.96C118.445 13.9733 118.651 13.98 118.851 13.98C119.065 13.9667 119.258 13.96 119.431 13.96C119.831 13.96 120.238 13.9333 120.651 13.88C121.078 13.8133 121.465 13.74 121.811 13.66C122.171 13.5667 122.438 13.4733 122.611 13.38C122.718 13.34 122.798 13.32 122.851 13.32C122.958 13.32 123.025 13.36 123.051 13.44C123.051 13.5733 122.925 13.7 122.671 13.82C122.378 13.9533 121.931 14.0867 121.331 14.22C120.731 14.3533 120.098 14.4333 119.431 14.46C119.271 14.4733 119.078 14.4867 118.851 14.5C118.638 14.5 118.398 14.5 118.131 14.5C117.985 15.0333 117.698 15.5333 117.271 16C116.858 16.4667 116.371 16.88 115.811 17.24C115.251 17.5867 114.678 17.86 114.091 18.06C113.518 18.26 112.998 18.36 112.531 18.36ZM117.511 13.92C117.578 13.72 117.611 13.5467 117.611 13.4C117.611 13.16 117.511 12.9533 117.311 12.78C117.125 12.6067 116.765 12.52 116.231 12.52C115.685 12.52 115.225 12.6 114.851 12.76C114.491 12.9067 114.311 13.04 114.311 13.16C114.311 13.1867 114.338 13.2267 114.391 13.28C114.445 13.3333 114.551 13.3867 114.711 13.44C115.138 13.5733 115.591 13.68 116.071 13.76C116.551 13.84 117.031 13.8933 117.511 13.92ZM112.911 17.78C113.165 17.7267 113.478 17.6067 113.851 17.42C114.238 17.2333 114.638 17 115.051 16.72C115.478 16.4267 115.871 16.1067 116.231 15.76C116.605 15.4267 116.945 15 117.251 14.48C116.758 14.48 116.271 14.4733 115.791 14.46C115.325 14.4467 114.905 14.3533 114.531 14.18C114.371 14.1933 114.145 14.32 113.851 14.56C113.558 14.7867 113.265 15.0733 112.971 15.42C112.678 15.7667 112.425 16.12 112.211 16.48C112.011 16.8267 111.911 17.1267 111.911 17.38C111.911 17.5 111.951 17.6067 112.031 17.7C112.125 17.78 112.285 17.82 112.511 17.82C112.565 17.82 112.625 17.82 112.691 17.82C112.758 17.8067 112.831 17.7933 112.911 17.78ZM116.455 26.48C116.109 26.48 115.755 26.4333 115.395 26.34C115.022 26.26 114.715 26.1067 114.475 25.88C114.222 25.6667 114.095 25.3667 114.095 24.98C114.095 24.5 114.289 23.9867 114.675 23.44C115.062 22.8933 115.642 22.3867 116.415 21.92C117.162 21.4667 117.902 21.0733 118.635 20.74C119.369 20.42 120.102 20.1333 120.835 19.88C121.555 19.6267 122.282 19.3867 123.015 19.16C123.749 18.9467 124.562 18.6933 125.455 18.4C125.695 17.92 125.882 17.4267 126.015 16.92C126.162 16.4133 126.235 15.9733 126.235 15.6C126.235 15.36 126.202 15.16 126.135 15C126.095 15.0267 126.069 15.0533 126.055 15.08C126.042 15.1067 126.022 15.1333 125.995 15.16C125.902 15.2533 125.789 15.3733 125.655 15.52C125.522 15.6533 125.375 15.8 125.215 15.96C124.949 16.2267 124.609 16.54 124.195 16.9C123.795 17.26 123.375 17.5733 122.935 17.84C122.509 18.0933 122.095 18.22 121.695 18.22C121.509 18.22 121.329 18.1733 121.155 18.08C120.982 18 120.829 17.8667 120.695 17.68C120.535 17.4533 120.455 17.2 120.455 16.92C120.455 16.52 120.575 16.0933 120.815 15.64C121.069 15.1867 121.389 14.7467 121.775 14.32C122.162 13.88 122.569 13.5 122.995 13.18C123.435 12.86 123.842 12.6333 124.215 12.5C124.349 12.46 124.482 12.4267 124.615 12.4C124.762 12.3733 124.922 12.36 125.095 12.36C125.469 12.36 125.835 12.4467 126.195 12.62C126.569 12.78 126.782 13.08 126.835 13.52V13.58C126.835 13.78 126.775 13.9133 126.655 13.98C126.629 14.0067 126.589 14.02 126.535 14.02C126.402 14.02 126.335 13.9333 126.335 13.76C126.335 13.6667 126.295 13.5267 126.215 13.34C126.135 13.1533 125.942 13.06 125.635 13.06C125.235 13.06 124.789 13.2 124.295 13.48C123.815 13.76 123.349 14.1133 122.895 14.54C122.442 14.9533 122.055 15.3867 121.735 15.84C121.429 16.2933 121.249 16.6933 121.195 17.04C121.182 17.0933 121.175 17.14 121.175 17.18C121.175 17.22 121.175 17.2533 121.175 17.28C121.175 17.48 121.209 17.6133 121.275 17.68C121.355 17.7333 121.435 17.76 121.515 17.76C121.715 17.76 121.949 17.68 122.215 17.52C122.495 17.36 122.755 17.1867 122.995 17C123.249 16.8 123.435 16.6533 123.555 16.56C123.902 16.2667 124.255 15.96 124.615 15.64C124.989 15.32 125.362 15 125.735 14.68C125.722 14.6533 125.715 14.6133 125.715 14.56C125.715 14.4933 125.729 14.4333 125.755 14.38C125.822 14.2733 125.915 14.1867 126.035 14.12C126.155 14.0533 126.322 14.02 126.535 14.02C126.829 14.02 127.042 14.1333 127.175 14.36C127.309 14.5867 127.375 14.8867 127.375 15.26C127.375 15.5933 127.322 15.9933 127.215 16.46C127.109 16.9133 126.942 17.4133 126.715 17.96C127.982 17.4933 129.109 16.9933 130.095 16.46C131.082 15.9267 131.862 15.3933 132.435 14.86C132.515 14.78 132.635 14.6667 132.795 14.52C132.969 14.3733 133.142 14.2333 133.315 14.1C133.409 14.0333 133.489 13.9733 133.555 13.92C133.635 13.8533 133.702 13.8 133.755 13.76C133.835 13.7067 133.889 13.68 133.915 13.68C134.035 13.6267 134.095 13.66 134.095 13.78C134.095 13.86 134.042 13.9867 133.935 14.16C133.829 14.32 133.615 14.56 133.295 14.88C132.375 15.7867 131.315 16.58 130.115 17.26C128.929 17.94 127.669 18.4333 126.335 18.74C125.855 19.7133 125.255 20.66 124.535 21.58C123.815 22.5 123.009 23.3267 122.115 24.06C121.235 24.7933 120.309 25.3733 119.335 25.8C118.375 26.24 117.415 26.4667 116.455 26.48ZM116.195 26.02C117.075 26.02 117.942 25.8133 118.795 25.4C119.662 25 120.482 24.46 121.255 23.78C122.029 23.1 122.735 22.3533 123.375 21.54C124.029 20.74 124.582 19.94 125.035 19.14C123.355 19.6333 121.882 20.12 120.615 20.6C119.349 21.0933 118.162 21.7067 117.055 22.44C116.242 22.9733 115.662 23.4667 115.315 23.92C114.969 24.3733 114.795 24.76 114.795 25.08C114.795 25.3333 114.915 25.5533 115.155 25.74C115.395 25.9267 115.742 26.02 116.195 26.02ZM134.762 21.5C134.149 21.5 133.702 21.3467 133.422 21.04C133.142 20.7333 133.002 20.34 133.002 19.86C133.002 19.34 133.129 18.7533 133.382 18.1C133.649 17.4467 133.995 16.7867 134.422 16.12C134.862 15.44 135.335 14.8133 135.842 14.24C135.775 14.2533 135.709 14.26 135.642 14.26C135.575 14.26 135.509 14.26 135.442 14.26C134.989 14.26 134.609 14.1533 134.302 13.94C134.169 14.14 133.982 14.36 133.742 14.6C133.502 14.84 133.269 15.0533 133.042 15.24C132.482 15.7067 131.889 16.1533 131.262 16.58C130.635 17.0067 130.015 17.36 129.402 17.64C128.789 17.92 128.215 18.08 127.682 18.12C127.642 18.12 127.589 18.1133 127.522 18.1C127.442 18.0867 127.382 18.06 127.342 18.02C127.289 17.98 127.275 17.94 127.302 17.9C127.329 17.8467 127.355 17.8133 127.382 17.8C127.422 17.7733 127.469 17.7533 127.522 17.74C127.575 17.7133 127.649 17.6933 127.742 17.68C128.195 17.5867 128.695 17.4 129.242 17.12C129.789 16.8267 130.355 16.48 130.942 16.08C131.542 15.6667 132.115 15.2333 132.662 14.78C132.889 14.6067 133.122 14.4133 133.362 14.2C133.602 13.9733 133.815 13.7667 134.002 13.58C133.869 13.3667 133.802 13.14 133.802 12.9C133.802 12.58 133.889 12.26 134.062 11.94C134.235 11.62 134.455 11.3267 134.722 11.06C134.989 10.78 135.275 10.56 135.582 10.4C135.889 10.2267 136.175 10.14 136.442 10.14C136.589 10.14 136.689 10.1733 136.742 10.24C136.809 10.3067 136.842 10.38 136.842 10.46C136.842 10.6333 136.782 10.7667 136.662 10.86C136.569 10.94 136.415 11.0867 136.202 11.3C136.002 11.5133 135.782 11.7533 135.542 12.02C135.302 12.2733 135.082 12.5267 134.882 12.78C134.695 13.02 134.569 13.22 134.502 13.38C134.542 13.4467 134.602 13.5067 134.682 13.56C134.775 13.6133 134.929 13.64 135.142 13.64C135.462 13.64 135.775 13.5733 136.082 13.44C136.389 13.3067 136.675 13.1467 136.942 12.96C137.022 12.92 137.109 12.9 137.202 12.9C137.349 12.9 137.489 12.9333 137.622 13C137.769 13.0533 137.869 13.1133 137.922 13.18C137.935 13.1933 137.942 13.22 137.942 13.26C137.942 13.3933 137.869 13.5533 137.722 13.74C137.642 13.8333 137.549 13.9333 137.442 14.04C137.349 14.1467 137.255 14.2533 137.162 14.36C136.789 14.7733 136.402 15.24 136.002 15.76C135.615 16.2667 135.262 16.7867 134.942 17.32C134.622 17.84 134.362 18.3333 134.162 18.8C133.962 19.28 133.862 19.6933 133.862 20.04C133.862 20.2933 133.929 20.4933 134.062 20.64C134.209 20.8 134.455 20.88 134.802 20.88C134.869 20.88 134.942 20.8733 135.022 20.86C135.115 20.86 135.209 20.8533 135.302 20.84C135.635 20.7867 136.015 20.6667 136.442 20.48C136.869 20.2933 137.295 20.0733 137.722 19.82C138.149 19.58 138.515 19.36 138.822 19.16C138.849 19.1333 138.895 19.12 138.962 19.12C139.055 19.12 139.109 19.16 139.122 19.24V19.28C139.122 19.3467 139.082 19.42 139.002 19.5C138.975 19.5267 138.929 19.5667 138.862 19.62C138.795 19.6867 138.709 19.7667 138.602 19.86C138.175 20.2333 137.702 20.56 137.182 20.84C136.662 21.1333 136.115 21.3267 135.542 21.42C135.409 21.4333 135.275 21.4467 135.142 21.46C135.009 21.4867 134.882 21.5 134.762 21.5ZM145.569 18.22C145.169 18.22 144.802 18.12 144.469 17.92C144.149 17.7067 143.989 17.3267 143.989 16.78C143.989 16.58 144.016 16.3733 144.069 16.16C144.122 15.9333 144.182 15.7133 144.249 15.5C144.022 15.7267 143.742 15.9933 143.409 16.3C143.076 16.5933 142.709 16.88 142.309 17.16C141.922 17.44 141.529 17.6733 141.129 17.86C140.742 18.0333 140.376 18.12 140.029 18.12C139.602 18.12 139.256 17.9667 138.989 17.66C138.802 17.46 138.709 17.2 138.709 16.88C138.709 16.4933 138.842 16.0667 139.109 15.6C139.389 15.12 139.762 14.6467 140.229 14.18C140.709 13.7133 141.249 13.2867 141.849 12.9C142.462 12.5133 143.096 12.2067 143.749 11.98C144.456 11.7267 145.082 11.6 145.629 11.6C146.589 11.6 147.069 12.0133 147.069 12.84C147.069 12.8933 147.062 12.96 147.049 13.04C147.049 13.1067 147.042 13.18 147.029 13.26C146.962 13.5267 146.862 13.7067 146.729 13.8C146.716 13.8133 146.682 13.8333 146.629 13.86C146.576 13.8733 146.529 13.8533 146.489 13.8C146.449 13.7333 146.442 13.64 146.469 13.52C146.509 13.3733 146.529 13.2467 146.529 13.14C146.529 12.7667 146.322 12.58 145.909 12.58C145.682 12.58 145.396 12.6267 145.049 12.72C144.702 12.8133 144.329 12.94 143.929 13.1C143.542 13.2467 143.169 13.4067 142.809 13.58C142.462 13.7533 142.169 13.9267 141.929 14.1C141.316 14.54 140.776 15.0267 140.309 15.56C139.856 16.08 139.596 16.5333 139.529 16.92C139.516 16.96 139.509 17 139.509 17.04C139.509 17.08 139.509 17.1133 139.509 17.14C139.509 17.34 139.549 17.4733 139.629 17.54C139.722 17.6067 139.829 17.64 139.949 17.64C140.176 17.64 140.436 17.5733 140.729 17.44C141.022 17.2933 141.296 17.1333 141.549 16.96C141.816 16.7867 142.002 16.6533 142.109 16.56C142.522 16.2 142.989 15.8133 143.509 15.4C144.042 14.9733 144.516 14.58 144.929 14.22C145.009 14.18 145.109 14.16 145.229 14.16C145.442 14.16 145.609 14.2067 145.729 14.3C145.782 14.34 145.809 14.42 145.809 14.54C145.809 14.7 145.749 14.9 145.629 15.14C145.416 15.5933 145.236 16 145.089 16.36C144.942 16.7067 144.869 16.9933 144.869 17.22C144.869 17.5533 145.056 17.72 145.429 17.72C145.722 17.72 146.196 17.6067 146.849 17.38C147.529 17.1267 148.216 16.7733 148.909 16.32C149.616 15.8667 150.249 15.4067 150.809 14.94C150.876 14.8733 150.942 14.82 151.009 14.78C151.076 14.74 151.136 14.6933 151.189 14.64C151.256 14.6 151.316 14.5533 151.369 14.5C151.436 14.4467 151.509 14.3933 151.589 14.34C151.669 14.3133 151.722 14.3 151.749 14.3C151.842 14.3 151.889 14.3467 151.889 14.44C151.889 14.52 151.856 14.5933 151.789 14.66C151.709 14.7667 151.516 14.96 151.209 15.24C150.902 15.52 150.522 15.8333 150.069 16.18C149.629 16.5267 149.142 16.86 148.609 17.18C148.089 17.5 147.562 17.7533 147.029 17.94C146.829 18.0067 146.596 18.0667 146.329 18.12C146.076 18.1867 145.822 18.22 145.569 18.22ZM137.902 28.3C137.329 28.3 136.815 28.2333 136.362 28.1C135.709 27.9 135.109 27.5867 134.562 27.16C134.015 26.7333 133.615 26.1733 133.362 25.48C133.349 25.4267 133.342 25.38 133.342 25.34C133.329 25.3 133.322 25.2667 133.322 25.24C133.322 25.04 133.409 24.94 133.582 24.94C133.662 24.94 133.749 24.9733 133.842 25.04C133.922 25.1067 133.982 25.2133 134.022 25.36C134.249 26 134.562 26.5 134.962 26.86C135.362 27.2333 135.889 27.4867 136.542 27.62C136.715 27.6467 136.889 27.6667 137.062 27.68C137.235 27.6933 137.409 27.7 137.582 27.7C138.209 27.7 138.815 27.6067 139.402 27.42C139.975 27.2467 140.509 27.02 141.002 26.74C141.669 26.3533 142.422 25.7667 143.262 24.98C144.102 24.1933 144.962 23.2933 145.842 22.28C146.415 21.6133 146.969 20.9267 147.502 20.22C148.035 19.5133 148.562 18.7933 149.082 18.06C149.589 17.3533 150.089 16.64 150.582 15.92C151.075 15.1867 151.582 14.46 152.102 13.74C152.049 13.7533 152.002 13.76 151.962 13.76C151.922 13.76 151.882 13.76 151.842 13.76C151.615 13.76 151.502 13.7 151.502 13.58C151.515 13.4467 151.622 13.2933 151.822 13.12C152.022 12.9333 152.262 12.7733 152.542 12.64C152.835 12.4933 153.102 12.42 153.342 12.42C153.489 12.42 153.609 12.4467 153.702 12.5C153.849 12.4733 154.069 12.44 154.362 12.4C154.655 12.36 154.989 12.34 155.362 12.34C155.789 12.34 156.242 12.3867 156.722 12.48C157.215 12.5733 157.655 12.7733 158.042 13.08C158.189 13.1733 158.342 13.34 158.502 13.58C158.662 13.82 158.749 14.0667 158.762 14.32C159.269 14.2533 159.749 14.2 160.202 14.16C160.655 14.1067 161.035 14.08 161.342 14.08C161.462 14.08 161.575 14.08 161.682 14.08C161.802 14.08 161.895 14.0933 161.962 14.12C161.989 14.1333 162.029 14.1533 162.082 14.18C162.149 14.1933 162.202 14.2133 162.242 14.24C162.349 14.3467 162.342 14.4267 162.222 14.48C162.182 14.4933 162.089 14.5 161.942 14.5C161.635 14.4733 161.195 14.5 160.622 14.58C160.049 14.6467 159.409 14.7533 158.702 14.9C158.609 15.3533 158.389 15.76 158.042 16.12C157.709 16.48 157.309 16.7867 156.842 17.04C156.375 17.2933 155.882 17.5067 155.362 17.68C154.842 17.84 154.342 17.96 153.862 18.04C153.382 18.12 152.969 18.16 152.622 18.16C152.235 18.16 151.869 18.0867 151.522 17.94C151.189 17.7933 151.022 17.5733 151.022 17.28C151.022 17.0133 151.169 16.7533 151.462 16.5C151.742 16.26 152.209 16.0133 152.862 15.76C153.515 15.5067 154.289 15.2667 155.182 15.04C156.089 14.8 157.049 14.5933 158.062 14.42C158.089 14.3667 158.102 14.3133 158.102 14.26C158.102 14.2067 158.102 14.1533 158.102 14.1C158.102 13.6733 157.869 13.38 157.402 13.22C156.949 13.06 156.409 12.98 155.782 12.98C155.355 12.98 154.942 13.0067 154.542 13.06C154.155 13.1133 153.862 13.1733 153.662 13.24L153.302 13.38C152.449 14.3933 151.749 15.3 151.202 16.1C150.655 16.9 150.149 17.6667 149.682 18.4C149.229 19.1333 148.762 19.8667 148.282 20.6C147.802 21.3467 147.202 22.1667 146.482 23.06C145.709 24.0467 144.915 24.92 144.102 25.68C143.289 26.4533 142.509 27.0267 141.762 27.4C141.229 27.6533 140.622 27.8667 139.942 28.04C139.262 28.2133 138.582 28.3 137.902 28.3ZM152.522 17.36C152.869 17.36 153.302 17.3067 153.822 17.2C154.342 17.0933 154.835 16.94 155.302 16.74C155.795 16.5267 156.242 16.28 156.642 16C157.042 15.7067 157.369 15.4133 157.622 15.12C156.995 15.2667 156.362 15.4267 155.722 15.6C155.095 15.7733 154.515 15.9533 153.982 16.14C153.462 16.3133 153.029 16.4933 152.682 16.68C152.389 16.8267 152.195 16.9467 152.102 17.04C152.009 17.1333 151.962 17.1933 151.962 17.22C151.962 17.3133 152.149 17.36 152.522 17.36ZM168.95 18.34C168.377 18.34 167.917 18.2067 167.57 17.94C167.223 17.66 166.977 17.3 166.83 16.86C166.683 16.42 166.61 15.9467 166.61 15.44C166.61 15.1733 166.63 14.9067 166.67 14.64C166.71 14.36 166.757 14.0867 166.81 13.82C166.517 14.1533 166.183 14.5133 165.81 14.9C165.45 15.2867 165.077 15.66 164.69 16.02C164.317 16.38 163.97 16.7 163.65 16.98C163.33 17.26 163.063 17.4667 162.85 17.6C162.89 17.68 162.91 17.7533 162.91 17.82C162.91 17.94 162.87 18.0333 162.79 18.1C162.71 18.1667 162.617 18.2 162.51 18.2C162.39 18.2 162.263 18.16 162.13 18.08C162.01 18.0133 161.91 17.8933 161.83 17.72C161.777 17.6133 161.75 17.4667 161.75 17.28C161.75 17.0133 161.81 16.7067 161.93 16.36C162.063 16.0133 162.223 15.6533 162.41 15.28C162.663 14.8 162.943 14.3067 163.25 13.8C163.57 13.28 163.877 12.7933 164.17 12.34C164.103 12.2733 164.057 12.2133 164.03 12.16C164.003 12.0933 163.99 12.04 163.99 12C163.99 11.96 164.003 11.9133 164.03 11.86C164.057 11.7933 164.097 11.76 164.15 11.76C164.203 11.76 164.257 11.7867 164.31 11.84C164.323 11.88 164.357 11.9267 164.41 11.98C164.543 11.7667 164.803 11.36 165.19 10.76C165.59 10.1467 166.083 9.42667 166.67 8.6C167.257 7.77333 167.903 6.92667 168.61 6.06C169.17 5.36667 169.763 4.7 170.39 4.06C171.017 3.40667 171.657 2.82667 172.31 2.32C172.963 1.8 173.617 1.38667 174.27 1.08C174.923 0.773333 175.557 0.62 176.17 0.62C176.85 0.62 177.357 0.799999 177.69 1.16C178.023 1.50667 178.19 1.96 178.19 2.52C178.19 3.29333 178.023 4.04 177.69 4.76C177.357 5.46667 176.91 6.14667 176.35 6.8C175.803 7.44 175.19 8.04667 174.51 8.62C173.83 9.18 173.143 9.7 172.45 10.18C171.797 10.6333 171.09 11.0267 170.33 11.36C169.583 11.6933 168.857 11.9733 168.15 12.2C168.203 12.2533 168.25 12.3133 168.29 12.38C168.343 12.4467 168.397 12.52 168.45 12.6C168.477 12.6533 168.49 12.7133 168.49 12.78C168.49 13.0067 168.45 13.1733 168.37 13.28C167.81 14.1467 167.53 15.0067 167.53 15.86C167.53 16.3933 167.663 16.84 167.93 17.2C168.197 17.56 168.603 17.74 169.15 17.74C169.71 17.74 170.443 17.5133 171.35 17.06C171.923 16.7667 172.503 16.4267 173.09 16.04C173.69 15.6533 174.23 15.2667 174.71 14.88C174.777 14.8133 174.843 14.76 174.91 14.72C174.99 14.68 175.057 14.6333 175.11 14.58L175.51 14.26C175.55 14.2467 175.597 14.24 175.65 14.24C175.757 14.24 175.81 14.2867 175.81 14.38C175.81 14.46 175.777 14.5333 175.71 14.6C175.63 14.7067 175.45 14.8867 175.17 15.14C174.89 15.38 174.543 15.66 174.13 15.98C173.73 16.3 173.29 16.6133 172.81 16.92C172.343 17.2267 171.877 17.4933 171.41 17.72C171.143 17.8533 170.777 17.9867 170.31 18.12C169.857 18.2667 169.403 18.34 168.95 18.34ZM165.19 12.18C165.51 12.1533 165.943 12.0733 166.49 11.94C167.037 11.7933 167.637 11.6 168.29 11.36C168.943 11.12 169.603 10.84 170.27 10.52C170.937 10.2 171.55 9.84667 172.11 9.46C172.483 9.19333 172.903 8.86667 173.37 8.48C173.85 8.09333 174.33 7.66 174.81 7.18C175.29 6.7 175.73 6.2 176.13 5.68C176.543 5.14667 176.87 4.60667 177.11 4.06C177.363 3.51333 177.49 2.97333 177.49 2.44C177.49 2.06667 177.39 1.79333 177.19 1.62C176.99 1.44667 176.65 1.36 176.17 1.36C175.757 1.36 175.263 1.52 174.69 1.84C174.117 2.16 173.523 2.57333 172.91 3.08C172.297 3.57333 171.71 4.1 171.15 4.66C170.603 5.20667 170.143 5.70667 169.77 6.16C169.197 6.86667 168.61 7.6 168.01 8.36C167.41 9.10667 166.857 9.82 166.35 10.5C165.857 11.1667 165.47 11.7267 165.19 12.18ZM162.73 16.98C162.89 16.8733 163.117 16.6867 163.41 16.42C163.703 16.1533 164.03 15.8467 164.39 15.5C164.75 15.1533 165.11 14.8 165.47 14.44C165.843 14.0667 166.177 13.72 166.47 13.4C166.777 13.0667 167.017 12.8 167.19 12.6L167.25 12.46C166.557 12.62 165.95 12.7 165.43 12.7C165.337 12.7 165.243 12.7 165.15 12.7C165.057 12.6867 164.977 12.6733 164.91 12.66C164.577 13.1667 164.243 13.7067 163.91 14.28C163.577 14.84 163.297 15.36 163.07 15.84C162.843 16.32 162.73 16.7 162.73 16.98ZM168.595 27.9C168.195 27.9 167.815 27.8333 167.455 27.7C167.081 27.5667 166.775 27.3733 166.535 27.12C166.295 26.8667 166.175 26.56 166.175 26.2C166.175 25.4 166.435 24.68 166.955 24.04C167.475 23.4133 168.101 22.86 168.835 22.38C169.195 22.1267 169.575 21.8933 169.975 21.68C170.361 21.4667 170.748 21.2667 171.135 21.08C171.521 20.8933 171.888 20.72 172.235 20.56C172.581 20.4133 172.901 20.2733 173.195 20.14C173.501 20.0067 173.888 19.8533 174.355 19.68C174.821 19.5067 175.321 19.3267 175.855 19.14C176.388 18.9667 176.915 18.7933 177.435 18.62C177.968 18.46 178.448 18.32 178.875 18.2C179.075 17.8133 179.248 17.3667 179.395 16.86C179.555 16.34 179.635 15.8867 179.635 15.5C179.635 15.2067 179.588 14.9933 179.495 14.86C179.241 15.1133 179.015 15.3467 178.815 15.56C178.628 15.76 178.435 15.96 178.235 16.16C178.035 16.3467 177.788 16.5667 177.495 16.82C177.081 17.18 176.655 17.5 176.215 17.78C175.775 18.0467 175.361 18.18 174.975 18.18C174.588 18.18 174.275 18.02 174.035 17.7C173.888 17.5 173.815 17.26 173.815 16.98C173.815 16.54 173.975 16.0733 174.295 15.58C174.615 15.0733 175.001 14.6 175.455 14.16C175.481 14.12 175.548 14.04 175.655 13.92C175.761 13.8 175.875 13.6733 175.995 13.54C176.115 13.4067 176.208 13.3133 176.275 13.26C176.288 13.1933 176.315 13.1133 176.355 13.02C176.408 12.9133 176.481 12.8133 176.575 12.72C176.655 12.6267 176.748 12.5467 176.855 12.48C176.975 12.4 177.088 12.36 177.195 12.36C177.275 12.36 177.341 12.38 177.395 12.42C177.515 12.4733 177.621 12.5467 177.715 12.64C177.821 12.72 177.875 12.8133 177.875 12.92C177.875 13.04 177.808 13.1667 177.675 13.3L177.255 13.7C176.908 14.0333 176.528 14.42 176.115 14.86C175.701 15.2867 175.341 15.7 175.035 16.1C174.741 16.5 174.581 16.82 174.555 17.06C174.541 17.1 174.535 17.14 174.535 17.18C174.535 17.22 174.535 17.26 174.535 17.3C174.535 17.4867 174.568 17.6133 174.635 17.68C174.715 17.7467 174.795 17.78 174.875 17.78C175.075 17.78 175.308 17.7 175.575 17.54C175.855 17.38 176.115 17.2067 176.355 17.02C176.608 16.82 176.788 16.6733 176.895 16.58C177.281 16.2333 177.661 15.8867 178.035 15.54C178.408 15.18 178.775 14.8333 179.135 14.5C179.135 14.38 179.195 14.2733 179.315 14.18C179.435 14.0733 179.621 14.02 179.875 14.02C180.168 14.02 180.388 14.1467 180.535 14.4C180.695 14.6533 180.775 14.9733 180.775 15.36C180.775 15.6667 180.728 16.02 180.635 16.42C180.541 16.8067 180.395 17.2267 180.195 17.68C181.128 17.2667 181.995 16.8333 182.795 16.38C183.595 15.9267 184.348 15.3733 185.055 14.72C185.135 14.6533 185.228 14.56 185.335 14.44C185.455 14.32 185.568 14.2067 185.675 14.1C185.808 13.98 185.928 13.88 186.035 13.8C186.155 13.72 186.235 13.6867 186.275 13.7C186.341 13.7267 186.375 13.78 186.375 13.86C186.375 13.9133 186.341 13.9933 186.275 14.1C186.221 14.1933 186.135 14.3067 186.015 14.44C185.895 14.5733 185.741 14.74 185.555 14.94C184.821 15.6733 184.001 16.3133 183.095 16.86C182.188 17.3933 181.101 17.9133 179.835 18.42C179.181 19.7 178.408 20.9133 177.515 22.06C176.635 23.2067 175.688 24.2133 174.675 25.08C173.675 25.96 172.655 26.6467 171.615 27.14C170.575 27.6467 169.568 27.9 168.595 27.9ZM168.235 27.26C168.795 27.26 169.448 27.12 170.195 26.84C170.941 26.5733 171.701 26.2 172.475 25.72C173.261 25.24 173.975 24.68 174.615 24.04C174.895 23.76 175.228 23.3933 175.615 22.94C176.001 22.4867 176.388 22.0067 176.775 21.5C177.175 21.0067 177.535 20.5267 177.855 20.06C178.188 19.5933 178.435 19.2067 178.595 18.9C177.608 19.14 176.575 19.46 175.495 19.86C174.415 20.2733 173.361 20.7333 172.335 21.24C171.321 21.76 170.401 22.3067 169.575 22.88C168.748 23.4533 168.095 24.0267 167.615 24.6C167.121 25.1733 166.875 25.7267 166.875 26.26C166.875 26.5933 167.001 26.84 167.255 27C167.495 27.1733 167.821 27.26 168.235 27.26Z" fill="black"/>
</svg>
