<svg width="80" height="80" viewBox="0 0 80 80" fill="none" xmlns="http://www.w3.org/2000/svg">
<path d="M74.5552 14.4C74.5552 13.4512 74.1782 12.5412 73.5073 11.8703C72.8364 11.1994 71.9264 10.8224 70.9776 10.8224C70.7952 10.8224 70.62 10.8496 70.444 10.876V10.8H8.99996V10.8224C8.05112 10.8224 7.14115 11.1994 6.47022 11.8703C5.79929 12.5412 5.42236 13.4512 5.42236 14.4V66H5.46236C5.66396 67.7848 7.16076 69.1776 8.99916 69.1776V69.2H70.4432V69.124C70.6184 69.1504 70.7936 69.1776 70.9768 69.1776C72.816 69.1776 74.3128 67.7856 74.5144 66H74.5768V14.4H74.5552ZM66.612 61.2344H57.9232C57.8939 61.1115 57.8493 60.9927 57.7904 60.8808L57.8048 60.8729L39.6296 29.3929L39.6224 29.3968C39.4219 28.9804 39.1081 28.629 38.717 28.3828C38.3259 28.1366 37.8733 28.0056 37.4112 28.0048C36.9363 28.0055 36.4717 28.1433 36.0733 28.4017C35.6749 28.6602 35.3597 29.0283 35.1656 29.4616L23.0704 50.4104L20.1088 45.2817L20.1048 45.284C19.9992 45.0644 19.8338 44.879 19.6276 44.7491C19.4215 44.6192 19.1828 44.5501 18.9392 44.5496C18.412 44.5496 17.96 44.8656 17.756 45.316L13.388 52.8816V18.788H66.612V61.2344Z" fill="#FBA1A1"/>
<path d="M54.4975 38.9472C58.9599 38.9472 62.5775 35.3297 62.5775 30.8672C62.5775 26.4048 58.9599 22.7872 54.4975 22.7872C50.035 22.7872 46.4175 26.4048 46.4175 30.8672C46.4175 35.3297 50.035 38.9472 54.4975 38.9472Z" fill="#FBA1A1"/>
</svg>
