<svg width="88" height="88" viewBox="0 0 88 88" fill="none" xmlns="http://www.w3.org/2000/svg">
<g filter="url(#filter0_d_28_61)">
<path d="M78.5552 14.4C78.5552 13.4512 78.1782 12.5412 77.5073 11.8703C76.8364 11.1994 75.9264 10.8224 74.9776 10.8224C74.7952 10.8224 74.62 10.8496 74.444 10.876V10.8H13V10.8224C12.0511 10.8224 11.1411 11.1994 10.4702 11.8703C9.79929 12.5412 9.42236 13.4512 9.42236 14.4V66H9.46236C9.66396 67.7848 11.1608 69.1776 12.9992 69.1776V69.2H74.4432V69.124C74.6184 69.1504 74.7936 69.1776 74.9768 69.1776C76.816 69.1776 78.3128 67.7856 78.5144 66H78.5768V14.4H78.5552ZM70.612 61.2344H61.9232C61.8939 61.1115 61.8493 60.9927 61.7904 60.8808L61.8048 60.8729L43.6296 29.3929L43.6224 29.3968C43.4219 28.9804 43.1081 28.629 42.717 28.3828C42.3259 28.1366 41.8733 28.0056 41.4112 28.0048C40.9363 28.0055 40.4717 28.1433 40.0733 28.4017C39.6749 28.6602 39.3597 29.0283 39.1656 29.4616L27.0704 50.4104L24.1088 45.2817L24.1048 45.284C23.9992 45.0644 23.8338 44.879 23.6276 44.7491C23.4215 44.6192 23.1828 44.5501 22.9392 44.5496C22.412 44.5496 21.96 44.8656 21.756 45.316L17.388 52.8816V18.788H70.612V61.2344Z" fill="#FBA1A1"/>
<path d="M58.4975 38.9472C62.9599 38.9472 66.5775 35.3297 66.5775 30.8672C66.5775 26.4048 62.9599 22.7872 58.4975 22.7872C54.035 22.7872 50.4175 26.4048 50.4175 30.8672C50.4175 35.3297 54.035 38.9472 58.4975 38.9472Z" fill="#FBA1A1"/>
</g>
<defs>
<filter id="filter0_d_28_61" x="0" y="0" width="88" height="88" filterUnits="userSpaceOnUse" color-interpolation-filters="sRGB">
<feFlood flood-opacity="0" result="BackgroundImageFix"/>
<feColorMatrix in="SourceAlpha" type="matrix" values="0 0 0 0 0 0 0 0 0 0 0 0 0 0 0 0 0 0 127 0" result="hardAlpha"/>
<feOffset dy="4"/>
<feGaussianBlur stdDeviation="2"/>
<feComposite in2="hardAlpha" operator="out"/>
<feColorMatrix type="matrix" values="0 0 0 0 0 0 0 0 0 0 0 0 0 0 0 0 0 0 0.25 0"/>
<feBlend mode="normal" in2="BackgroundImageFix" result="effect1_dropShadow_28_61"/>
<feBlend mode="normal" in="SourceGraphic" in2="effect1_dropShadow_28_61" result="shape"/>
</filter>
</defs>
</svg>
