<svg width="70" height="70" viewBox="0 0 70 70" fill="none" xmlns="http://www.w3.org/2000/svg">
<path fill-rule="evenodd" clip-rule="evenodd" d="M35.0001 2.91663C17.2813 2.91663 2.91675 17.2812 2.91675 35C2.91675 52.7187 17.2813 67.0833 35.0001 67.0833C52.7188 67.0833 67.0834 52.7187 67.0834 35C67.0834 17.2812 52.7188 2.91663 35.0001 2.91663ZM28.563 25.3954C28.0317 24.8453 27.7377 24.1085 27.7444 23.3438C27.751 22.5791 28.0578 21.8475 28.5985 21.3067C29.1393 20.766 29.8708 20.4592 30.6356 20.4526C31.4003 20.4459 32.1371 20.7399 32.6872 21.2712L44.3538 32.9379C44.9006 33.4848 45.2078 34.2266 45.2078 35C45.2078 35.7734 44.9006 36.5151 44.3538 37.062L32.6872 48.7287C32.1371 49.26 31.4003 49.554 30.6356 49.5473C29.8708 49.5407 29.1393 49.234 28.5985 48.6932C28.0578 48.1524 27.751 47.4209 27.7444 46.6561C27.7377 45.8914 28.0317 45.1546 28.563 44.6045L38.1676 35L28.563 25.3954Z" fill="white"/>
</svg>
